PathFileType	4	(X/Y/Z)	C:\Documents and Settings\rtobon\Desktop\NewMocap\New\NoT\ActorF_TPose.trc
DataRate	CameraRate	NumFrames	NumMarkers	Units	OrigDataRate	OrigDataStartFrame	OrigNumFrames
120.00	120.00	       5	49	mm	120.00	131	       260
Frame#	Time	Root			LtFtHip			LtBkHip			RtFtHip			RtBkHip			Spine1			Spine2			Spine3			SpineOffsetLow			SpineOffsetHigh			LtCtChest			RtCtChest			LtChest			RtChest			LtShoulder			LtBicep			LtElbow			LtForeArm			LtWrist			LtPinky			LtThumb			LtMiddFing			RtShoulder			RtBicep			RtElbow			RtForeArm			RtWrist			RtPinky			RtThumb			RtMiddFing			LtThigh			LtKnee			LtCalf			LtAnkle			LtHeel			LtBall			LtToe			RtThigh			RtKnee			RtCalf			RtAnkle			RtHeel			RtBall			RtToe			TopHead			LfFtHead			LtBkHead			RtFtHead			RtBkHead			
		X1	Y1	Z1	X2	Y2	Z2	X3	Y3	Z3	X4	Y4	Z4	X5	Y5	Z5	X6	Y6	Z6	X7	Y7	Z7	X8	Y8	Z8	X9	Y9	Z9	X10	Y10	Z10	X11	Y11	Z11	X12	Y12	Z12	X13	Y13	Z13	X14	Y14	Z14	X15	Y15	Z15	X16	Y16	Z16	X17	Y17	Z17	X18	Y18	Z18	X19	Y19	Z19	X20	Y20	Z20	X21	Y21	Z21	X22	Y22	Z22	X23	Y23	Z23	X24	Y24	Z24	X25	Y25	Z25	X26	Y26	Z26	X27	Y27	Z27	X28	Y28	Z28	X29	Y29	Z29	X30	Y30	Z30	X31	Y31	Z31	X32	Y32	Z32	X33	Y33	Z33	X34	Y34	Z34	X35	Y35	Z35	X36	Y36	Z36	X37	Y37	Z37	X38	Y38	Z38	X39	Y39	Z39	X40	Y40	Z40	X41	Y41	Z41	X42	Y42	Z42	X43	Y43	Z43	X44	Y44	Z44	X45	Y45	Z45	X46	Y46	Z46	X47	Y47	Z47	X48	Y48	Z48	X49	Y49	Z49	

131	1.083	16.54813	1102.54419	1287.52124	109.08654	1010.70020	1563.61621	112.33327	1069.87708	1288.28784	-160.20473	1031.11951	1531.85620	-111.15026	1069.48425	1271.02283	19.34880	1277.07727	1280.98889	19.72918	1411.49084	1286.43042	9.35236	1529.80054	1340.80981	-64.24916	1197.51172	1279.40015	148.26361	1356.65149	1289.99731	19.98808	1372.87378	1594.06042	-29.10415	1400.15295	1582.06836	102.30286	1449.46033	1568.75317	-99.78073	1448.22290	1558.51941	166.66595	1543.15027	1404.18481	338.93637	1519.32996	1441.66101	492.06119	1497.38623	1411.67847	599.95215	1489.72046	1462.26477	735.38867	1471.22412	1484.84216	790.98090	1417.23962	1449.54968	761.20929	1448.90857	1558.94775	793.84894	1467.90466	1490.30701	-164.83566	1552.46143	1434.51172	-342.68036	1503.81238	1412.99890	-445.10318	1487.61475	1397.49414	-594.79370	1472.09082	1439.04065	-710.55743	1456.22192	1450.84680	-774.58502	1407.66443	1426.45239	-756.37683	1451.33167	1525.76294	-784.31879	1457.74658	1460.05981	214.55649	737.41010	1468.65918	203.85619	578.20313	1418.20972	225.62778	337.05884	1348.65564	201.36467	147.84380	1340.34521	133.06441	51.24257	1270.16907	222.13168	55.01251	1444.15137	172.92720	46.42630	1542.70557	-253.63570	776.85828	1456.30981	-247.20776	551.87891	1431.49268	-269.75729	403.60773	1374.33569	-247.39520	151.78899	1351.17517	-173.80226	52.03271	1263.68640	-276.97290	53.24979	1437.66711	-222.08632	54.29584	1529.25647	-14.72116	1780.91260	1466.77917	54.57651	1715.80078	1595.20935	72.35447	1655.19556	1418.07898	-67.26782	1703.59973	1584.87952	-76.32227	1637.14136	1412.91101	
132	1.092	16.54813	1102.54419	1287.52124	109.14398	1010.61084	1563.48950	112.39818	1069.90076	1288.12170	-160.24846	1031.12231	1531.79419	-111.07674	1069.29773	1271.15747	19.39445	1277.18982	1280.87891	19.48512	1411.58606	1286.35632	9.32945	1529.81360	1340.76746	-64.20729	1197.42896	1279.39587	148.34628	1356.69153	1289.84949	20.05499	1372.86218	1594.04016	-29.10415	1400.15295	1582.06836	102.32114	1449.52185	1568.69995	-99.82543	1448.27405	1558.44080	166.64978	1543.18823	1404.13428	338.85507	1519.36804	1441.53003	491.90952	1497.33057	1411.40796	599.97882	1489.75476	1462.20227	735.39063	1471.29602	1484.71021	790.70935	1417.08887	1449.65210	761.20911	1448.96094	1558.88318	793.83044	1467.91968	1490.21399	-164.90768	1552.61877	1434.44031	-342.42480	1503.78894	1412.45349	-445.10318	1487.61475	1397.49414	-594.79370	1472.09082	1439.04065	-710.55743	1456.22192	1450.84680	-774.74786	1407.68604	1426.39441	-756.38513	1451.31104	1525.87756	-784.49377	1457.82043	1460.10229	214.55649	737.41010	1468.65918	203.86703	578.23853	1418.16016	225.71248	337.04184	1348.58594	201.30090	147.55302	1340.28735	133.17863	51.33265	1269.99341	222.10332	55.02583	1444.06641	172.92720	46.42630	1542.70557	-253.64835	776.90259	1456.46680	-247.00912	551.93109	1431.33801	-269.69012	403.61111	1374.30444	-247.37161	151.89769	1351.05798	-173.79170	52.06778	1263.64050	-276.97290	53.24979	1437.66711	-222.06984	54.26303	1529.31067	-14.60844	1780.94812	1466.66113	54.57405	1715.81799	1595.10449	72.40439	1655.20447	1417.99719	-67.28046	1703.62634	1584.85168	-76.35427	1637.12646	1412.87439	
133	1.100	16.54813	1102.54419	1287.52124	109.14398	1010.61084	1563.48950	112.44544	1069.91772	1288.04456	-160.08701	1031.05908	1531.75110	-110.91719	1069.24744	1271.04602	19.40772	1277.13745	1280.77161	19.48512	1411.58606	1286.35632	9.29306	1529.81165	1340.48218	-64.24916	1197.51172	1279.40015	148.38852	1356.67908	1289.74011	20.01619	1373.03967	1593.91418	-29.05993	1400.08862	1582.02673	102.36982	1449.60999	1568.61768	-99.82543	1448.27405	1558.44080	166.63568	1543.33252	1404.04517	338.86038	1519.38757	1441.50488	491.91473	1497.42139	1411.46118	600.03192	1489.93481	1462.20410	735.37708	1471.31934	1484.70801	790.57361	1417.03125	1449.33984	761.17767	1448.93127	1558.89148	793.82800	1467.98206	1490.24536	-165.00824	1552.51880	1434.32227	-342.44891	1503.69751	1412.38464	-445.15320	1487.56677	1397.58069	-594.85620	1472.06592	1439.11682	-710.60925	1456.14111	1450.94482	-774.65704	1407.61780	1426.72949	-756.23315	1451.30786	1526.01172	-784.39886	1457.77307	1460.35474	214.65240	737.37976	1468.47327	203.88972	578.03088	1418.05066	225.73863	337.09753	1348.52173	201.19020	147.64186	1340.17395	133.21777	51.26234	1270.03967	222.27736	54.93780	1444.05334	172.92720	46.42630	1542.70557	-253.65674	776.90247	1456.28186	-246.95895	551.78168	1431.13293	-269.69012	403.61111	1374.30444	-247.37161	151.89769	1351.05798	-173.80226	52.03271	1263.68640	-276.97290	53.24979	1437.66711	-222.06984	54.26303	1529.31067	-14.53718	1780.88513	1466.15063	54.54250	1715.84338	1595.02454	72.40439	1655.20447	1417.99719	-67.28897	1703.65137	1584.82837	-76.43679	1637.07788	1412.54626	
134	1.108	16.42248	1102.32068	1286.91272	109.29767	1010.47601	1563.41675	112.33015	1069.92566	1287.84949	-160.03781	1030.96655	1531.69604	-110.91719	1069.24744	1271.04602	19.25384	1277.09338	1280.69189	19.69604	1411.57739	1286.26099	9.19235	1529.85645	1340.36023	-64.24916	1197.51172	1279.40015	148.17876	1356.70288	1289.65784	20.21986	1373.15039	1593.89404	-29.04824	1400.16333	1581.95129	102.46832	1449.70569	1568.30945	-99.82543	1448.27405	1558.44080	166.59991	1543.39258	1403.87659	338.84045	1519.47974	1441.42969	491.94263	1497.44910	1411.40906	600.05084	1489.94714	1462.17676	735.36462	1471.36328	1484.73035	790.64197	1417.09277	1449.27319	761.19067	1448.90430	1558.89063	793.80945	1467.99890	1490.21521	-164.89162	1552.52771	1434.28650	-342.55109	1503.84485	1412.31787	-445.22028	1487.63611	1397.57800	-594.88928	1472.17249	1439.13794	-710.68823	1456.19714	1451.03601	-774.55591	1407.71375	1426.93542	-756.32666	1451.29395	1526.21509	-784.37799	1457.95764	1460.50037	214.70956	737.38367	1468.36072	203.85977	578.31628	1418.11914	225.76405	337.12607	1348.45032	201.20045	147.70317	1340.09668	133.06186	51.29356	1270.10535	222.18333	54.98153	1444.15894	172.92720	46.42630	1542.70557	-253.65674	776.90247	1456.28186	-246.92859	551.82300	1431.13574	-269.69012	403.61111	1374.30444	-247.39520	151.78899	1351.17517	-173.80226	52.03271	1263.68640	-276.98892	53.35953	1437.58960	-222.08632	54.29584	1529.25647	-14.50019	1780.90222	1466.02832	54.60723	1715.87329	1594.94727	72.39700	1655.23279	1417.96643	-67.31900	1703.72180	1584.71387	-76.59287	1637.03674	1412.31482	
135	1.117	16.56938	1102.56360	1286.83093	109.34518	1010.49597	1563.40222	112.43790	1069.82532	1287.81128	-159.93765	1030.90405	1531.70239	-110.95867	1069.26331	1270.98608	19.40772	1277.13745	1280.77161	19.48512	1411.58606	1286.35632	9.02147	1529.90173	1339.96606	-64.20729	1197.42896	1279.39587	148.38852	1356.67908	1289.74011	20.09416	1373.07959	1593.88062	-29.09473	1400.14233	1581.88513	102.35873	1449.76013	1568.17200	-99.82543	1448.27405	1558.44080	166.53093	1543.33606	1403.66150	338.86270	1519.43469	1441.34863	491.92471	1497.46533	1411.38879	600.05084	1489.94714	1462.17676	735.35034	1471.24939	1484.70776	790.46014	1417.04041	1449.17126	761.18408	1448.86047	1558.95508	793.84015	1467.71301	1490.34253	-165.12416	1552.55981	1434.33350	-342.58569	1503.84180	1412.32935	-445.30072	1487.60120	1397.53308	-594.88928	1472.17249	1439.13794	-710.74268	1456.25000	1451.14648	-774.59204	1407.73022	1427.00818	-756.21661	1451.28418	1526.28687	-784.36438	1458.08337	1460.58423	214.78098	737.50555	1468.21704	203.82253	577.85834	1417.93701	225.76405	337.12607	1348.45032	201.28416	147.64890	1340.33081	133.22034	51.21134	1270.10327	222.10332	55.02583	1444.06641	173.00047	46.44478	1542.72778	-253.65616	776.89954	1456.27515	-246.92859	551.82300	1431.13574	-269.38431	403.40836	1374.27222	-247.39520	151.78899	1351.17517	-173.79170	52.06778	1263.64050	-276.97290	53.24979	1437.66711	-222.06984	54.26303	1529.31067	-14.45949	1780.93787	1466.12622	54.44437	1715.98596	1594.72168	72.08882	1655.24048	1417.62634	-67.35113	1703.66846	1584.53076	-76.59287	1637.03674	1412.31482	
